<?xml version="1.0" encoding="utf-8"?>
<!-- Generator: Adobe Illustrator 23.0.2, SVG Export Plug-In . SVG Version: 6.00 Build 0)  -->
<svg version="1.1" xmlns="http://www.w3.org/2000/svg" xmlns:xlink="http://www.w3.org/1999/xlink" width="200px" height="26px" x="0px" y="0px"
	 viewBox="0 0 3942.1 507.9" style="enable-background:new 0 0 3942.1 507.9;" xml:space="preserve">
<style type="text/css">
	.st0{fill:#191919;}
</style>
<g id="hexnode">
</g>
<g id="mdm">
	<g>
		<path class="st0" d="M168.5,176.9c-8.2-1.3-27.6-3.4-51,2c-8.5,2-24.3,5.6-40,15l0-148.2c0-21.4-17.4-38.8-38.8-38.8
			S0,24.2,0,45.6l0,421.5c0,21.4,17.4,38.8,38.8,38.8s38.8-17.4,38.8-38.8l0-153.2v0c4.9-15,8.1-24.9,17-35c4.7-5.4,18.6-19.4,41-23
			c31.8-5,54.8,15.1,58,18c23.8,21.6,23.9,50.8,23.8,55.3l0,144c0,19.1,16.6,34.6,37.2,34.6h0.8c20.5,0,37.2-15.5,37.2-34.6l0-152.6
			c-0.6-30.3-9.6-52.2-15.4-63.8C255.9,214.6,214.1,183.8,168.5,176.9z"/>
		<path class="st0" d="M1591.3,173.1c-6.4-0.8-15.5-1.5-26.2-0.9c-57.8,3.2-96.8,40.6-105.8,49.7c-46.9,47.4-48.6,106-48.7,116.5
			c-0.2,18.2,2,67.3,39.1,109.7c26.9,30.9,66.6,51.2,115.6,55.8c5.9,0.7,13.2,1.2,21.4,1l0.1,0c0.1,0,0.3,0,0.4,0v0
			c70-1.9,115.3-52.5,118.2-55.8c5.6-6.4,37.7-48.8,39.1-109.7C1746.5,251.9,1678.5,179,1591.3,173.1z M1662.7,341.2
			c-1.7,46.8-41.7,83.4-89.3,81.6c-47.6-1.8-84.7-41.2-83-88c1.7-46.8,41.7-83.4,89.3-81.6C1627.3,254.9,1664.4,294.3,1662.7,341.2z
			"/>
		<path class="st0" d="M1216.5,176.9c-30.5-0.5-59.3,8.6-83.4,24.1c-5.6-15.8-20.7-27.1-38.4-27.1c-22.5,0-40.8,18.2-40.8,40.8
			l0,248.5c0,22.5,18.2,40.8,40.8,40.8c1.1,0,2.3-0.1,3.4-0.2c1.1,0.1,2.1,0.2,3.2,0.2c19.2,0,34.9-15.1,34.9-33.8l0-140.5
			c0.7-2.8,1.8-6.8,3.3-11.7c0.5-1.6,4.1-13.4,7-20c7.6-17.5,23.1-28,26-30c15.5-10.3,30.5-11.7,34-12c11.9-0.9,20.9,1.6,26,3
			c5,1.4,19.8,5.8,33,18c21.1,19.6,23.6,46,24,53c0.3,47,0.7,94,1,141c0.4,3.2,2.4,14.2,12,23c11.2,10.3,24.7,10.1,27.4,10h0.7
			c19.2,0,34.9-15.1,34.9-33.8l0-148.9c-1.2-15.7-5.5-42.2-22-69.3C1339.3,245,1297,178.2,1216.5,176.9z"/>
		<path class="st0" d="M2404.5,210c-38-30.3-84.3-32.8-90-33c-5.3-0.2-28.1-0.9-56,8c-35.6,11.3-57.8,31.2-63,36
			c-47.9,44.3-51.6,104.9-52,115c-0.6,14.1-2.1,65.5,35,111c37.8,46.4,89.8,54.8,103,57c23.3,3.8,44.1,1.8,51,1
			c9.3-1.1,27.2-3.2,48-12c27.6-11.6,46.6-28.9,58.2-41.9c6.5-15.4,5.3-32.2-4-43.6c-7.5-9.1-17.8-11.7-21.2-12.5
			c-19.1-4.5-34.4,6.1-37,8c-4.4,4.6-10.6,10.2-19,15c-17,9.7-33.3,11-42,11c-8.1,0.5-35.7,1.1-62-18
			c-21.9-15.9-30.7-36.7-33.6-44.9l237.8,0C2467.6,304.9,2447.9,244.5,2404.5,210z M2254.5,273c21.7-14.8,43.3-16.7,52-17
			c7.2-0.1,27.8,0.7,48,15c11.3,8,18.8,17.6,23.6,26l-148.1,0C2235.6,289.2,2243.5,280.5,2254.5,273z"/>
		<path class="st0" d="M776.5,326.9c19.7-20.7,39.3-41.3,59-62c-24.9-24.1-49.8-48.3-74.8-72.4c-16.5-16.5-43.3-16.5-59.8,0
			c-16.5,16.5-16.5,43.3,0,59.8C726.2,277.2,751.3,302.1,776.5,326.9z"/>
		<path class="st0" d="M1000,185.4c-16.3-15.6-42.1-15-57.6,1.3L702.5,437.4c-15.6,16.3-15,42.1,1.3,57.6
			c16.3,15.6,42.1,15,57.6-1.3l88.5-92.5l89.2,89.2c16.5,16.5,43.3,16.5,59.8,0c16.5-16.5,16.5-43.3,0-59.8l-90.5-90.6l92.9-97.1
			C1016.8,226.8,1016.3,201,1000,185.4z"/>
		<path class="st0" d="M2068.6,0c-22.1,0-40,17.9-40,40l0,162.3c-22.9-16.4-50.3-26.9-80-29.1v0c-6.4-0.8-15.5-1.6-26.3-1
			c-57.2,3.2-95.8,40.6-104.7,49.6c-46.4,47.3-48.1,105.9-48.2,116.3c-0.2,18.2,2,67.2,38.6,109.6c26.5,30.7,65.5,50.9,113.6,55.7
			c5.9,0.8,13.2,1.3,21.5,1.1l0.2,0c0.3,0,0.5,0,0.8,0l0,0c36.4-1.1,65.9-16.2,85.8-30.4c4.6,17,20.1,29.5,38.6,29.5
			c22.1,0,40-17.9,40-40l0-423.7C2108.6,17.9,2090.7,0,2068.6,0z M2022.9,341.1c-1.8,48.6-42.4,86.6-90.7,84.8
			c-48.3-1.8-86-42.7-84.2-91.3c1.8-48.6,42.4-86.6,90.7-84.8C1987.1,251.6,2024.8,292.5,2022.9,341.1z"/>
		<path class="st0" d="M596.5,210.9c-38-30.3-84.3-32.8-90-33c-5.3-0.2-28.1-0.9-56,8c-35.6,11.3-57.8,31.2-63,36
			c-47.9,44.3-51.6,104.9-52,115c-0.6,14.1-2.1,65.5,35,111c37.8,46.4,89.8,54.8,103,57c23.3,3.8,44.1,1.8,51,1
			c9.3-1.1,27.2-3.2,48-12c27.6-11.6,46.6-28.9,58.2-41.9c6.5-15.4,5.3-32.2-4-43.6c-7.5-9.1-17.8-11.7-21.2-12.5
			c-19.1-4.5-34.4,6.1-37,8c-4.4,4.6-10.6,10.2-19,15c-17,9.7-33.3,11-42,11c-8.1,0.5-35.7,1.1-62-18
			c-21.9-15.9-30.7-36.7-33.6-44.9l237.8,0C659.6,305.7,639.9,245.4,596.5,210.9z M446.5,273.9c21.7-14.8,43.3-16.7,52-17
			c7.2-0.1,27.8,0.7,48,15c11.3,8,18.8,17.6,23.6,26l-148.1,0C427.6,290.1,435.5,281.4,446.5,273.9z"/>
		<path class="st0" d="M3408.5,1.9c-22.1,0-40,17.9-40,40v162.3c-22.9-16.4-50.3-26.9-80-29.1v0c-6.4-0.8-15.5-1.6-26.3-1
			c-57.2,3.2-95.8,40.6-104.7,49.6c-46.4,47.3-48,105.9-48.2,116.3c-0.2,18.2,2,67.2,38.7,109.6c26.5,30.7,65.5,50.9,113.6,55.7
			c5.9,0.8,13.2,1.3,21.5,1.1l0.2,0c0.3,0,0.5,0,0.8,0l0,0c36.4-1.1,65.9-16.2,85.8-30.4c4.6,17,20.1,29.5,38.6,29.5
			c22.1,0,40-17.9,40-40V41.9C3448.5,19.8,3430.6,1.9,3408.5,1.9z M3362.9,343.1c-1.8,48.6-42.4,86.6-90.7,84.8
			c-48.3-1.8-86-42.7-84.2-91.3c1.8-48.6,42.4-86.6,90.7-84.8C3327.1,253.6,3364.8,294.4,3362.9,343.1z"/>
		<path class="st0" d="M2943.1,178.6c-35.1,0-67.4,13.3-91.1,37.7c-22.7-24.8-53.8-38.4-87.7-38.4c-22.2,0-43.1,5.8-61.3,16.8
			c-7.1-10.7-19.2-17.8-33-17.8c-21.8,0-39.5,17.7-39.5,39.5v251c0,21.8,17.7,39.5,39.5,39.5s39.5-17.7,39.5-39.5V294.9
			c2.6-16.2,14.4-26.6,16-28c9.7-8.3,20.2-10,26-11c5.3-0.9,14.2-2.3,25,1c15.2,4.6,23.5,15.4,26,19c2,2.8,8.6,8.2,9,24
			c0.2,8.8,0.5,17,1,24v143.4c0,21.5,17.5,39,39,39s39-17.5,39-39V313.9c0-1.1-0.1-2.2-0.1-3.2c1.2-6.7,0.5-12.3,4.1-21.8
			c1.8-4.6,5-12.8,13-20c9.1-8.1,19.1-10.2,23-11c9.2-1.8,16.4-0.6,20,0c4.3,0.7,12.5,2.2,21,8c2.5,1.7,11.6,8.2,17,20
			c2.5,5.5,3.6,12.6,5.1,25.2c0.1,2.3,0.2,5,0.4,7.9v155.3c0,17.7,17.3,32,38.7,32c17,0,31.5-9.1,36.7-21.7c0.5,0,1,0,1.5,0.1
			c0-1.8,0.1-3.6,0.1-5.3c0.3-1.6,0.5-3.3,0.5-5V455c0.9-43.8,1.7-87.6,2.6-131.3C3074.1,233.2,3014.2,178.6,2943.1,178.6z"/>
		<path class="st0" d="M3939.5,455c0.9-43.8,1.7-87.6,2.6-131.3c0-90.4-59.9-145-131-145c-35.1,0-67.4,13.3-91.1,37.7
			c-22.7-24.8-53.8-38.4-87.7-38.4c-22.2,0-43.1,5.8-61.3,16.8c-7.1-10.7-19.2-17.8-33-17.8c-21.8,0-39.5,17.7-39.5,39.5v251
			c0,21.8,17.7,39.5,39.5,39.5s39.5-17.7,39.5-39.5V294.9c2.6-16.2,14.4-26.6,16-28c9.7-8.3,20.2-10,26-11c5.3-0.9,14.2-2.3,25,1
			c15.2,4.6,23.5,15.4,26,19c2,2.8,8.6,8.2,9,24c0.2,8.8,0.5,17,1,24v143.4c0,21.5,17.5,39,39,39s39-17.5,39-39V313.9
			c0-1.1-0.1-2.2-0.1-3.2c1.2-6.7,0.5-12.3,4.1-21.8c1.8-4.6,5-12.8,13-20c9.1-8.1,19.1-10.2,23-11c9.2-1.8,16.4-0.6,20,0
			c4.3,0.7,12.5,2.2,21,8c2.5,1.7,11.6,8.2,17,20c2.5,5.5,3.6,12.6,5.1,25.2c0.1,2.3,0.2,5,0.4,7.9v155.3c0,17.7,17.3,32,38.7,32
			c17,0,31.5-9.1,36.7-21.7c0.5,0,1,0,1.5,0.1c0-1.8,0.1-3.6,0.1-5.3c0.3-1.6,0.5-3.3,0.5-5V455z"/>
	</g>
</g>
<g id="logo">
</g>
</svg>
